<svg id="Layer_3" enable-background="new 0 0 64 64" height="512" viewBox="0 0 64 64" width="512" xmlns="http://www.w3.org/2000/svg"><path d="m54.05 12c-1.589 0-3.083.619-4.207 1.743l-2.843 2.843-.293-.293c-.338-.338-.867-.39-1.262-.125l-5.963 3.976c-.381-.214-.865-.175-1.189.149l-1.879 1.879c-.912.911-1.414 2.124-1.414 3.414v1l-1.064 1.064c-.192-.271-.403-.531-.643-.771l-.985-.985c.426-.519.692-1.172.692-1.894 0-.771-.301-1.468-.78-2 .48-.532.78-1.229.78-2 0-.883-.391-1.67-1-2.22v-1.88c1.194-.214 2.295-.782 3.172-1.658l1.242-1.242h.086c1.379 0 2.5-1.122 2.5-2.5s-1.121-2.5-2.5-2.5h-3.086l-.293-.293c-.59-.59-.95-1.343-1.067-2.155.582-.694.946-1.577.946-2.552v-1c0-.552-.447-1-1-1h-6c-.553 0-1 .448-1 1v1c0 .975.364 1.858.946 2.552-.117.812-.477 1.564-1.067 2.155l-.293.293h-3.086c-1.379 0-2.5 1.122-2.5 2.5s1.121 2.5 2.5 2.5h.086l1.242 1.243c.877.876 1.978 1.443 3.172 1.658v1.88c-.609.549-1 1.337-1 2.22 0 .771.301 1.468.78 2-.48.532-.78 1.229-.78 2 0 .722.266 1.375.692 1.894l-.985.985c-.24.24-.451.5-.643.771l-1.064-1.065v-1c0-1.29-.502-2.502-1.414-3.414l-1.879-1.879c-.391-.391-1.023-.391-1.414 0l-5 5c-.391.391-.391 1.023 0 1.414l1.879 1.879c.912.912 2.124 1.414 3.414 1.414h1l4.707 4.707.021-.021c.123.15.254.295.393.435l.119.119c-1.072.458-1.826 1.522-1.826 2.76 0 .883.391 1.67 1 2.22v.881c0 1.603-.624 3.109-1.757 4.243l-3.879 3.878c-1.364 1.364-2.175 3.132-2.331 5.033-4.196-1.619-7.033-5.661-7.033-10.255v-11c1.654 0 3-1.346 3-3 0-.883-.391-1.67-1-2.22v-5.56c.609-.549 1-1.337 1-2.22 0-.892-.399-1.685-1.018-2.235l-.987-9.865c-.051-.511-.481-.9-.995-.9h-2c-.514 0-.944.389-.995.9l-.986 9.865c-.62.55-1.019 1.343-1.019 2.235 0 .883.391 1.67 1 2.22v5.561c-.609.549-1 1.336-1 2.219 0 1.654 1.346 3 3 3v11c0 5.727 3.729 10.728 9.142 12.406.697 3.747 3.984 6.594 7.929 6.594h9.857c3.733 0 6.874-2.552 7.792-6h5.28c7.168 0 13-5.832 13-13v-26.05c0-3.281-2.669-5.95-5.95-5.95zm-48.05 8c0-.551.448-1 1-1h2c.552 0 1 .449 1 1s-.448 1-1 1h-2c-.552 0-1-.449-1-1zm2.095-11 .8 8h-1.79l.8-8zm.905 14v1h-2v-1zm-2 3h2v1h-2zm-1 4c0-.551.448-1 1-1h2c.552 0 1 .449 1 1s-.448 1-1 1h-2c-.552 0-1-.449-1-1zm39.873-11.713.84.841-3.268 4.903-2.475-2.475zm-8.873 7.299c0-.755.294-1.466.828-2l1.172-1.172 3.586 3.586-1.172 1.172c-.534.534-1.244.828-2 .828h-1l-1.414-1.414zm-1 2.828.586.586-1.605 1.605c-.023-.345-.077-.683-.158-1.014zm-4 10.586h-6c-.552 0-1-.449-1-1s.448-1 1-1h1 4 1c.552 0 1 .449 1 1s-.448 1-1 1zm-5-15c0-.551.448-1 1-1h2c.552 0 1 .449 1 1s-.448 1-1 1h-2c-.552 0-1-.449-1-1zm0-4c0-.551.448-1 1-1h2c.552 0 1 .449 1 1s-.448 1-1 1h-2c-.552 0-1-.449-1-1zm4-17c0 1.103-.897 2-2 2s-2-.897-2-2zm-3.276 3.772c.403.137.827.228 1.276.228s.873-.091 1.276-.228c.137.43.327.84.56 1.228h-3.674c.235-.388.425-.798.562-1.228zm-6.724 3.728c0-.276.225-.5.5-.5h15c.275 0 .5.224.5.5s-.225.5-.5.5h-15c-.275 0-.5-.224-.5-.5zm12.549 2.5c-.729.637-1.643 1-2.62 1h-3.857c-.977 0-1.891-.363-2.62-1zm-5.549 3h2v1h-2zm-1.879 12.293 1.293-1.293h.586 2 .586l1.293 1.293c.723.723 1.121 1.685 1.121 2.707s-.398 1.984-1.121 2.707l-1.293 1.293h-3.172l-1.293-1.293c-.723-.723-1.121-1.685-1.121-2.707s.398-1.984 1.121-2.707zm-3.102 2.312-1.605-1.605.586-.586 1.178 1.178c-.082.33-.136.668-.159 1.013zm-6.433-3.433-1.172-1.172 3.586-3.586 1.172 1.172c.534.534.828 1.245.828 2v1l-1.414 1.414h-1c-.756 0-1.466-.294-2-.828zm17.343 33.828h-9.857c-3.348 0-6.072-2.724-6.072-6.071 0-1.622.632-3.146 1.778-4.293l3.879-3.878c1.511-1.512 2.343-3.521 2.343-5.657v-.101h6v.101c0 2.137.832 4.146 2.343 5.657l3.879 3.878c1.146 1.147 1.778 2.671 1.778 4.293 0 3.347-2.724 6.071-6.071 6.071zm24.071-17c0 6.065-4.935 11-11 11h-5.004c0-.024.004-.047.004-.071 0-2.156-.84-4.183-2.364-5.707l-3.879-3.878c-1.133-1.134-1.757-2.641-1.757-4.243v-.881c.609-.549 1-1.337 1-2.22 0-1.238-.754-2.302-1.826-2.76l.119-.119c.139-.139.27-.284.393-.435l.021.021 4.707-4.707h1c1.29 0 2.502-.502 3.414-1.414l1.879-1.879c.324-.324.363-.808.149-1.189l3.976-5.963c.265-.396.212-.925-.125-1.262l-.293-.293 2.843-2.843c.746-.746 1.738-1.157 2.793-1.157 2.178 0 3.95 1.772 3.95 3.95z"/></svg>